<?xml version="1.0" encoding="UTF-8"?>
<svg id="Layer_2" data-name="Layer 2" xmlns="http://www.w3.org/2000/svg" viewBox="0 0 367.08 318.97">
  <defs>
    <style>
      .cls-1 {
        stroke-width: 0px;
      }
    </style>
  </defs>
  <g id="Hand_Drawn_Arrows" data-name="Hand Drawn Arrows">
    <path class="cls-1" d="M10.69,21.6c25.93-7.77,54.79-.65,72.57,20.24,4.38,5.15,7.91,10.97,10.56,17.17-6.21,4.81-11.71,10.53-16.25,16.98-8.57,12.18-15.98,31.97-5.25,45.2,6.21,7.66,16.41,9.74,25.47,6.17,8.87-3.5,14.61-11.43,17.38-20.35,3.95-12.75,3.71-26.87.56-40.14,2.66-1.31,5.39-2.43,8.17-3.33,19.53-6.32,39.71-1.53,54.63,11.3-1.21,1.07-2.39,2.16-3.53,3.31-12.29,12.45-20.03,29.54-18.36,47.23,1.59,16.8,13.91,34.28,32.64,31.78,18.4-2.46,28.19-20.41,28.49-37.57.26-14.55-4.21-28.66-11.9-40.87,2.69-1.36,5.45-2.6,8.23-3.71,27.42-11,60-13.36,87.48-1.45,26.9,11.66,43.57,35.69,46.42,64.68,5.76,58.63-28.37,119.98-75.35,153.42,6.01-14.8,9.96-30.33,11.79-46.41,1.34-11.82-17.09-12.8-18.42-1.04-2.44,21.46-9.33,41.98-20.29,60.58-4.11,6.98,1.72,15.42,9.7,14.02,25.77-4.53,51.55-9.05,77.32-13.58,11.7-2.06,7.79-20.09-3.89-18.03-9.27,1.63-18.54,3.26-27.8,4.88,19.53-17.75,35.46-39.05,46.9-63.18,15.43-32.52,24.35-72.23,15.85-107.87-8.69-36.4-38.81-63.01-74.96-70.86-20-4.34-40.82-3.56-60.68,1.21-11.6,2.79-23.45,6.79-34.14,12.67-20.81-20.24-51.36-27.23-79.38-16.68-1.67.63-3.31,1.32-4.93,2.06-.37-.81-.74-1.62-1.14-2.41C90.14,10.04,46.21-8.24,6.8,3.57-4.49,6.95-.7,25.02,10.69,21.6ZM199.33,117.4c.01,5.82-.74,12.32-4.66,16.93-3.45,4.05-9.22,6.41-13.82,2.76-10.22-8.11-6.13-26.22-.7-35.67,2.77-4.83,6.34-8.98,10.42-12.58,5.35,8.51,8.73,18.55,8.75,28.56ZM98.73,96.51c-.71,4.12-3.9,16.51-10.64,14.14-9.47-3.33,4.57-24.45,7.55-28.07,1.08-1.31,2.24-2.56,3.45-3.77.69,5.82.63,11.93-.36,17.7Z"/>
  </g>
</svg>